<svg class="rich-terminal" viewBox="0 0 994 635.5999999999999" xmlns="http://www.w3.org/2000/svg">
    <!-- Generated with Rich https://www.textualize.io -->
    <style>

    @font-face {
        font-family: "Fira Code";
        src: local("FiraCode-Regular"),
                url("https://cdnjs.cloudflare.com/ajax/libs/firacode/6.2.0/woff2/FiraCode-Regular.woff2") format("woff2"),
                url("https://cdnjs.cloudflare.com/ajax/libs/firacode/6.2.0/woff/FiraCode-Regular.woff") format("woff");
        font-style: normal;
        font-weight: 400;
    }
    @font-face {
        font-family: "Fira Code";
        src: local("FiraCode-Bold"),
                url("https://cdnjs.cloudflare.com/ajax/libs/firacode/6.2.0/woff2/FiraCode-Bold.woff2") format("woff2"),
                url("https://cdnjs.cloudflare.com/ajax/libs/firacode/6.2.0/woff/FiraCode-Bold.woff") format("woff");
        font-style: bold;
        font-weight: 700;
    }

    .terminal-3410553639-matrix {
        font-family: Fira Code, monospace;
        font-size: 20px;
        line-height: 24.4px;
        font-variant-east-asian: full-width;
    }

    .terminal-3410553639-title {
        font-size: 18px;
        font-weight: bold;
        font-family: arial;
    }

    .terminal-3410553639-r1 { fill: #c5c8c6 }
.terminal-3410553639-r2 { fill: #e0e0e0 }
.terminal-3410553639-r3 { fill: #a0a3a6 }
.terminal-3410553639-r4 { fill: #003054 }
.terminal-3410553639-r5 { fill: #e0e0e0;font-weight: bold }
.terminal-3410553639-r6 { fill: #1e1e1e }
.terminal-3410553639-r7 { fill: #fea62b }
.terminal-3410553639-r8 { fill: #ffa62b;font-weight: bold }
.terminal-3410553639-r9 { fill: #495259 }
    </style>

    <defs>
    <clipPath id="terminal-3410553639-clip-terminal">
      <rect x="0" y="0" width="975.0" height="584.5999999999999" />
    </clipPath>
    <clipPath id="terminal-3410553639-line-0">
    <rect x="0" y="1.5" width="976" height="24.65"/>
            </clipPath>
<clipPath id="terminal-3410553639-line-1">
    <rect x="0" y="25.9" width="976" height="24.65"/>
            </clipPath>
<clipPath id="terminal-3410553639-line-2">
    <rect x="0" y="50.3" width="976" height="24.65"/>
            </clipPath>
<clipPath id="terminal-3410553639-line-3">
    <rect x="0" y="74.7" width="976" height="24.65"/>
            </clipPath>
<clipPath id="terminal-3410553639-line-4">
    <rect x="0" y="99.1" width="976" height="24.65"/>
            </clipPath>
<clipPath id="terminal-3410553639-line-5">
    <rect x="0" y="123.5" width="976" height="24.65"/>
            </clipPath>
<clipPath id="terminal-3410553639-line-6">
    <rect x="0" y="147.9" width="976" height="24.65"/>
            </clipPath>
<clipPath id="terminal-3410553639-line-7">
    <rect x="0" y="172.3" width="976" height="24.65"/>
            </clipPath>
<clipPath id="terminal-3410553639-line-8">
    <rect x="0" y="196.7" width="976" height="24.65"/>
            </clipPath>
<clipPath id="terminal-3410553639-line-9">
    <rect x="0" y="221.1" width="976" height="24.65"/>
            </clipPath>
<clipPath id="terminal-3410553639-line-10">
    <rect x="0" y="245.5" width="976" height="24.65"/>
            </clipPath>
<clipPath id="terminal-3410553639-line-11">
    <rect x="0" y="269.9" width="976" height="24.65"/>
            </clipPath>
<clipPath id="terminal-3410553639-line-12">
    <rect x="0" y="294.3" width="976" height="24.65"/>
            </clipPath>
<clipPath id="terminal-3410553639-line-13">
    <rect x="0" y="318.7" width="976" height="24.65"/>
            </clipPath>
<clipPath id="terminal-3410553639-line-14">
    <rect x="0" y="343.1" width="976" height="24.65"/>
            </clipPath>
<clipPath id="terminal-3410553639-line-15">
    <rect x="0" y="367.5" width="976" height="24.65"/>
            </clipPath>
<clipPath id="terminal-3410553639-line-16">
    <rect x="0" y="391.9" width="976" height="24.65"/>
            </clipPath>
<clipPath id="terminal-3410553639-line-17">
    <rect x="0" y="416.3" width="976" height="24.65"/>
            </clipPath>
<clipPath id="terminal-3410553639-line-18">
    <rect x="0" y="440.7" width="976" height="24.65"/>
            </clipPath>
<clipPath id="terminal-3410553639-line-19">
    <rect x="0" y="465.1" width="976" height="24.65"/>
            </clipPath>
<clipPath id="terminal-3410553639-line-20">
    <rect x="0" y="489.5" width="976" height="24.65"/>
            </clipPath>
<clipPath id="terminal-3410553639-line-21">
    <rect x="0" y="513.9" width="976" height="24.65"/>
            </clipPath>
<clipPath id="terminal-3410553639-line-22">
    <rect x="0" y="538.3" width="976" height="24.65"/>
            </clipPath>
    </defs>

    <rect fill="#292929" stroke="rgba(255,255,255,0.35)" stroke-width="1" x="1" y="1" width="992" height="633.6" rx="8"/><text class="terminal-3410553639-title" fill="#c5c8c6" text-anchor="middle" x="496" y="27">Foreman</text>
            <g transform="translate(26,22)">
            <circle cx="0" cy="0" r="7" fill="#ff5f57"/>
            <circle cx="22" cy="0" r="7" fill="#febc2e"/>
            <circle cx="44" cy="0" r="7" fill="#28c840"/>
            </g>
        
    <g transform="translate(9, 41)" clip-path="url(#terminal-3410553639-clip-terminal)">
    <rect fill="#242f38" x="0" y="1.5" width="12.2" height="24.65" shape-rendering="crispEdges"/><rect fill="#242f38" x="12.2" y="1.5" width="12.2" height="24.65" shape-rendering="crispEdges"/><rect fill="#242f38" x="24.4" y="1.5" width="61" height="24.65" shape-rendering="crispEdges"/><rect fill="#242f38" x="85.4" y="1.5" width="12.2" height="24.65" shape-rendering="crispEdges"/><rect fill="#242f38" x="97.6" y="1.5" width="122" height="24.65" shape-rendering="crispEdges"/><rect fill="#242f38" x="219.6" y="1.5" width="85.4" height="24.65" shape-rendering="crispEdges"/><rect fill="#242f38" x="305" y="1.5" width="36.6" height="24.65" shape-rendering="crispEdges"/><rect fill="#242f38" x="341.6" y="1.5" width="353.8" height="24.65" shape-rendering="crispEdges"/><rect fill="#242f38" x="695.4" y="1.5" width="134.2" height="24.65" shape-rendering="crispEdges"/><rect fill="#242f38" x="829.6" y="1.5" width="12.2" height="24.65" shape-rendering="crispEdges"/><rect fill="#242f38" x="841.8" y="1.5" width="0" height="24.65" shape-rendering="crispEdges"/><rect fill="#242f38" x="841.8" y="1.5" width="97.6" height="24.65" shape-rendering="crispEdges"/><rect fill="#242f38" x="939.4" y="1.5" width="12.2" height="24.65" shape-rendering="crispEdges"/><rect fill="#000000" x="951.6" y="1.5" width="24.4" height="24.65" shape-rendering="crispEdges"/><rect fill="#1e1e1e" x="0" y="25.9" width="366" height="24.65" shape-rendering="crispEdges"/><rect fill="#1e1e1e" x="366" y="25.9" width="585.6" height="24.65" shape-rendering="crispEdges"/><rect fill="#003054" x="951.6" y="25.9" width="24.4" height="24.65" shape-rendering="crispEdges"/><rect fill="#1e1e1e" x="0" y="50.3" width="878.4" height="24.65" shape-rendering="crispEdges"/><rect fill="#1e1e1e" x="878.4" y="50.3" width="73.2" height="24.65" shape-rendering="crispEdges"/><rect fill="#003054" x="951.6" y="50.3" width="24.4" height="24.65" shape-rendering="crispEdges"/><rect fill="#1e1e1e" x="0" y="74.7" width="902.8" height="24.65" shape-rendering="crispEdges"/><rect fill="#1e1e1e" x="902.8" y="74.7" width="48.8" height="24.65" shape-rendering="crispEdges"/><rect fill="#003054" x="951.6" y="74.7" width="24.4" height="24.65" shape-rendering="crispEdges"/><rect fill="#1e1e1e" x="0" y="99.1" width="902.8" height="24.65" shape-rendering="crispEdges"/><rect fill="#1e1e1e" x="902.8" y="99.1" width="48.8" height="24.65" shape-rendering="crispEdges"/><rect fill="#003054" x="951.6" y="99.1" width="24.4" height="24.65" shape-rendering="crispEdges"/><rect fill="#1e1e1e" x="0" y="123.5" width="427" height="24.65" shape-rendering="crispEdges"/><rect fill="#1e1e1e" x="427" y="123.5" width="524.6" height="24.65" shape-rendering="crispEdges"/><rect fill="#003054" x="951.6" y="123.5" width="24.4" height="24.65" shape-rendering="crispEdges"/><rect fill="#1e1e1e" x="0" y="147.9" width="939.4" height="24.65" shape-rendering="crispEdges"/><rect fill="#1e1e1e" x="939.4" y="147.9" width="12.2" height="24.65" shape-rendering="crispEdges"/><rect fill="#003054" x="951.6" y="147.9" width="24.4" height="24.65" shape-rendering="crispEdges"/><rect fill="#1e1e1e" x="0" y="172.3" width="280.6" height="24.65" shape-rendering="crispEdges"/><rect fill="#1e1e1e" x="280.6" y="172.3" width="671" height="24.65" shape-rendering="crispEdges"/><rect fill="#003054" x="951.6" y="172.3" width="24.4" height="24.65" shape-rendering="crispEdges"/><rect fill="#1e1e1e" x="0" y="196.7" width="890.6" height="24.65" shape-rendering="crispEdges"/><rect fill="#1e1e1e" x="890.6" y="196.7" width="61" height="24.65" shape-rendering="crispEdges"/><rect fill="#003054" x="951.6" y="196.7" width="24.4" height="24.65" shape-rendering="crispEdges"/><rect fill="#1e1e1e" x="0" y="221.1" width="366" height="24.65" shape-rendering="crispEdges"/><rect fill="#1e1e1e" x="366" y="221.1" width="585.6" height="24.65" shape-rendering="crispEdges"/><rect fill="#003054" x="951.6" y="221.1" width="24.4" height="24.65" shape-rendering="crispEdges"/><rect fill="#1e1e1e" x="0" y="245.5" width="951.6" height="24.65" shape-rendering="crispEdges"/><rect fill="#003054" x="951.6" y="245.5" width="24.4" height="24.65" shape-rendering="crispEdges"/><rect fill="#1e1e1e" x="0" y="269.9" width="12.2" height="24.65" shape-rendering="crispEdges"/><rect fill="#1e1e1e" x="12.2" y="269.9" width="402.6" height="24.65" shape-rendering="crispEdges"/><rect fill="#1e1e1e" x="414.8" y="269.9" width="524.6" height="24.65" shape-rendering="crispEdges"/><rect fill="#1e1e1e" x="939.4" y="269.9" width="12.2" height="24.65" shape-rendering="crispEdges"/><rect fill="#003054" x="951.6" y="269.9" width="24.4" height="24.65" shape-rendering="crispEdges"/><rect fill="#1e1e1e" x="0" y="294.3" width="951.6" height="24.65" shape-rendering="crispEdges"/><rect fill="#003054" x="951.6" y="294.3" width="24.4" height="24.65" shape-rendering="crispEdges"/><rect fill="#1e1e1e" x="0" y="318.7" width="24.4" height="24.65" shape-rendering="crispEdges"/><rect fill="#1e1e1e" x="24.4" y="318.7" width="878.4" height="24.65" shape-rendering="crispEdges"/><rect fill="#1e1e1e" x="902.8" y="318.7" width="24.4" height="24.65" shape-rendering="crispEdges"/><rect fill="#003054" x="927.2" y="318.7" width="24.4" height="24.65" shape-rendering="crispEdges"/><rect fill="#003054" x="951.6" y="318.7" width="24.4" height="24.65" shape-rendering="crispEdges"/><rect fill="#1e1e1e" x="0" y="343.1" width="549" height="24.65" shape-rendering="crispEdges"/><rect fill="#1e1e1e" x="549" y="343.1" width="402.6" height="24.65" shape-rendering="crispEdges"/><rect fill="#003054" x="951.6" y="343.1" width="24.4" height="24.65" shape-rendering="crispEdges"/><rect fill="#1e1e1e" x="0" y="367.5" width="12.2" height="24.65" shape-rendering="crispEdges"/><rect fill="#1e1e1e" x="12.2" y="367.5" width="927.2" height="24.65" shape-rendering="crispEdges"/><rect fill="#1e1e1e" x="939.4" y="367.5" width="12.2" height="24.65" shape-rendering="crispEdges"/><rect fill="#003054" x="951.6" y="367.5" width="24.4" height="24.65" shape-rendering="crispEdges"/><rect fill="#1e1e1e" x="0" y="391.9" width="12.2" height="24.65" shape-rendering="crispEdges"/><rect fill="#1e1e1e" x="12.2" y="391.9" width="12.2" height="24.65" shape-rendering="crispEdges"/><rect fill="#262626" x="24.4" y="391.9" width="12.2" height="24.65" shape-rendering="crispEdges"/><rect fill="#262626" x="36.6" y="391.9" width="890.6" height="24.65" shape-rendering="crispEdges"/><rect fill="#1e1e1e" x="927.2" y="391.9" width="12.2" height="24.65" shape-rendering="crispEdges"/><rect fill="#1e1e1e" x="939.4" y="391.9" width="12.2" height="24.65" shape-rendering="crispEdges"/><rect fill="#003054" x="951.6" y="391.9" width="24.4" height="24.65" shape-rendering="crispEdges"/><rect fill="#1e1e1e" x="0" y="416.3" width="12.2" height="24.65" shape-rendering="crispEdges"/><rect fill="#1e1e1e" x="12.2" y="416.3" width="12.2" height="24.65" shape-rendering="crispEdges"/><rect fill="#1e1e1e" x="24.4" y="416.3" width="902.8" height="24.65" shape-rendering="crispEdges"/><rect fill="#1e1e1e" x="927.2" y="416.3" width="12.2" height="24.65" shape-rendering="crispEdges"/><rect fill="#1e1e1e" x="939.4" y="416.3" width="12.2" height="24.65" shape-rendering="crispEdges"/><rect fill="#003054" x="951.6" y="416.3" width="24.4" height="24.65" shape-rendering="crispEdges"/><rect fill="#1e1e1e" x="0" y="440.7" width="12.2" height="24.65" shape-rendering="crispEdges"/><rect fill="#1e1e1e" x="12.2" y="440.7" width="12.2" height="24.65" shape-rendering="crispEdges"/><rect fill="#1e1e1e" x="24.4" y="440.7" width="902.8" height="24.65" shape-rendering="crispEdges"/><rect fill="#1e1e1e" x="927.2" y="440.7" width="12.2" height="24.65" shape-rendering="crispEdges"/><rect fill="#1e1e1e" x="939.4" y="440.7" width="12.2" height="24.65" shape-rendering="crispEdges"/><rect fill="#003054" x="951.6" y="440.7" width="24.4" height="24.65" shape-rendering="crispEdges"/><rect fill="#1e1e1e" x="0" y="465.1" width="12.2" height="24.65" shape-rendering="crispEdges"/><rect fill="#1e1e1e" x="12.2" y="465.1" width="12.2" height="24.65" shape-rendering="crispEdges"/><rect fill="#1e1e1e" x="24.4" y="465.1" width="902.8" height="24.65" shape-rendering="crispEdges"/><rect fill="#1e1e1e" x="927.2" y="465.1" width="12.2" height="24.65" shape-rendering="crispEdges"/><rect fill="#1e1e1e" x="939.4" y="465.1" width="12.2" height="24.65" shape-rendering="crispEdges"/><rect fill="#003054" x="951.6" y="465.1" width="24.4" height="24.65" shape-rendering="crispEdges"/><rect fill="#1e1e1e" x="0" y="489.5" width="12.2" height="24.65" shape-rendering="crispEdges"/><rect fill="#1e1e1e" x="12.2" y="489.5" width="12.2" height="24.65" shape-rendering="crispEdges"/><rect fill="#1e1e1e" x="24.4" y="489.5" width="902.8" height="24.65" shape-rendering="crispEdges"/><rect fill="#1e1e1e" x="927.2" y="489.5" width="12.2" height="24.65" shape-rendering="crispEdges"/><rect fill="#1e1e1e" x="939.4" y="489.5" width="12.2" height="24.65" shape-rendering="crispEdges"/><rect fill="#003054" x="951.6" y="489.5" width="24.4" height="24.65" shape-rendering="crispEdges"/><rect fill="#1e1e1e" x="0" y="513.9" width="12.2" height="24.65" shape-rendering="crispEdges"/><rect fill="#1e1e1e" x="12.2" y="513.9" width="12.2" height="24.65" shape-rendering="crispEdges"/><rect fill="#1e1e1e" x="24.4" y="513.9" width="902.8" height="24.65" shape-rendering="crispEdges"/><rect fill="#1e1e1e" x="927.2" y="513.9" width="12.2" height="24.65" shape-rendering="crispEdges"/><rect fill="#1e1e1e" x="939.4" y="513.9" width="12.2" height="24.65" shape-rendering="crispEdges"/><rect fill="#003054" x="951.6" y="513.9" width="24.4" height="24.65" shape-rendering="crispEdges"/><rect fill="#1e1e1e" x="0" y="538.3" width="12.2" height="24.65" shape-rendering="crispEdges"/><rect fill="#1e1e1e" x="12.2" y="538.3" width="927.2" height="24.65" shape-rendering="crispEdges"/><rect fill="#1e1e1e" x="939.4" y="538.3" width="12.2" height="24.65" shape-rendering="crispEdges"/><rect fill="#003054" x="951.6" y="538.3" width="24.4" height="24.65" shape-rendering="crispEdges"/><rect fill="#242f38" x="0" y="562.7" width="61" height="24.65" shape-rendering="crispEdges"/><rect fill="#242f38" x="61" y="562.7" width="109.8" height="24.65" shape-rendering="crispEdges"/><rect fill="#242f38" x="170.8" y="562.7" width="36.6" height="24.65" shape-rendering="crispEdges"/><rect fill="#242f38" x="207.4" y="562.7" width="97.6" height="24.65" shape-rendering="crispEdges"/><rect fill="#242f38" x="305" y="562.7" width="36.6" height="24.65" shape-rendering="crispEdges"/><rect fill="#242f38" x="341.6" y="562.7" width="195.2" height="24.65" shape-rendering="crispEdges"/><rect fill="#242f38" x="536.8" y="562.7" width="61" height="24.65" shape-rendering="crispEdges"/><rect fill="#242f38" x="597.8" y="562.7" width="61" height="24.65" shape-rendering="crispEdges"/><rect fill="#242f38" x="658.8" y="562.7" width="146.4" height="24.65" shape-rendering="crispEdges"/><rect fill="#242f38" x="805.2" y="562.7" width="12.2" height="24.65" shape-rendering="crispEdges"/><rect fill="#242f38" x="817.4" y="562.7" width="24.4" height="24.65" shape-rendering="crispEdges"/><rect fill="#242f38" x="841.8" y="562.7" width="97.6" height="24.65" shape-rendering="crispEdges"/><rect fill="#242f38" x="939.4" y="562.7" width="12.2" height="24.65" shape-rendering="crispEdges"/><rect fill="#003054" x="951.6" y="562.7" width="24.4" height="24.65" shape-rendering="crispEdges"/>
    <g class="terminal-3410553639-matrix">
    <text class="terminal-3410553639-r2" x="12.2" y="20" textLength="12.2" clip-path="url(#terminal-3410553639-line-0)">⭘</text><text class="terminal-3410553639-r2" x="219.6" y="20" textLength="85.4" clip-path="url(#terminal-3410553639-line-0)">Foreman</text><text class="terminal-3410553639-r3" x="305" y="20" textLength="36.6" clip-path="url(#terminal-3410553639-line-0)">&#160;—&#160;</text><text class="terminal-3410553639-r3" x="341.6" y="20" textLength="353.8" clip-path="url(#terminal-3410553639-line-0)">agentic&#160;delivery&#160;orchestrator</text><text class="terminal-3410553639-r4" x="951.6" y="20" textLength="24.4" clip-path="url(#terminal-3410553639-line-0)">▁▁</text><text class="terminal-3410553639-r1" x="976" y="20" textLength="12.2" clip-path="url(#terminal-3410553639-line-0)">
</text><text class="terminal-3410553639-r5" x="0" y="44.4" textLength="366" clip-path="url(#terminal-3410553639-line-1)">Decisions&#160;made&#160;on&#160;your&#160;behalf:</text><text class="terminal-3410553639-r1" x="976" y="44.4" textLength="12.2" clip-path="url(#terminal-3410553639-line-1)">
</text><text class="terminal-3410553639-r2" x="0" y="68.8" textLength="878.4" clip-path="url(#terminal-3410553639-line-2)">&#160;&#160;•&#160;Ordered&#160;plan&#160;by&#160;`created_at`&#160;(not&#160;`id`)&#160;to&#160;match&#160;intuitive&#160;FIFO&#160;task</text><text class="terminal-3410553639-r1" x="976" y="68.8" textLength="12.2" clip-path="url(#terminal-3410553639-line-2)">
</text><text class="terminal-3410553639-r2" x="0" y="93.2" textLength="902.8" clip-path="url(#terminal-3410553639-line-3)">sequencing;&#160;supports&#160;re-ordering&#160;in&#160;future&#160;without&#160;breaking&#160;this&#160;endpoint.</text><text class="terminal-3410553639-r1" x="976" y="93.2" textLength="12.2" clip-path="url(#terminal-3410553639-line-3)">
</text><text class="terminal-3410553639-r2" x="0" y="117.6" textLength="902.8" clip-path="url(#terminal-3410553639-line-4)">&#160;&#160;•&#160;Filter&#160;by&#160;`status&#160;!=&#160;&#x27;done&#x27;`&#160;(not&#160;just&#160;&#x27;open&#x27;)&#160;to&#160;future-proof&#160;for&#160;new</text><text class="terminal-3410553639-r1" x="976" y="117.6" textLength="12.2" clip-path="url(#terminal-3410553639-line-4)">
</text><text class="terminal-3410553639-r2" x="0" y="142" textLength="427" clip-path="url(#terminal-3410553639-line-5)">status&#160;values&#160;without&#160;code&#160;changes.</text><text class="terminal-3410553639-r1" x="976" y="142" textLength="12.2" clip-path="url(#terminal-3410553639-line-5)">
</text><text class="terminal-3410553639-r2" x="0" y="166.4" textLength="939.4" clip-path="url(#terminal-3410553639-line-6)">&#160;&#160;•&#160;No&#160;schema&#160;migration&#160;needed;&#160;existing&#160;`tasks`&#160;table&#160;supports&#160;all&#160;filtering</text><text class="terminal-3410553639-r1" x="976" y="166.4" textLength="12.2" clip-path="url(#terminal-3410553639-line-6)">
</text><text class="terminal-3410553639-r2" x="0" y="190.8" textLength="280.6" clip-path="url(#terminal-3410553639-line-7)">and&#160;ordering&#160;semantics.</text><text class="terminal-3410553639-r1" x="976" y="190.8" textLength="12.2" clip-path="url(#terminal-3410553639-line-7)">
</text><text class="terminal-3410553639-r2" x="0" y="215.2" textLength="890.6" clip-path="url(#terminal-3410553639-line-8)">&#160;&#160;•&#160;No&#160;pagination&#160;added;&#160;&quot;keep&#160;it&#160;simple&quot;&#160;directive&#160;takes&#160;precedence&#160;over</text><text class="terminal-3410553639-r1" x="976" y="215.2" textLength="12.2" clip-path="url(#terminal-3410553639-line-8)">
</text><text class="terminal-3410553639-r2" x="0" y="239.6" textLength="366" clip-path="url(#terminal-3410553639-line-9)">potential&#160;high-load&#160;scenarios.</text><text class="terminal-3410553639-r1" x="976" y="239.6" textLength="12.2" clip-path="url(#terminal-3410553639-line-9)">
</text><text class="terminal-3410553639-r1" x="976" y="264" textLength="12.2" clip-path="url(#terminal-3410553639-line-10)">
</text><text class="terminal-3410553639-r7" x="12.2" y="288.4" textLength="402.6" clip-path="url(#terminal-3410553639-line-11)">✓&#160;No&#160;open&#160;questions&#160;—&#160;approvable.</text><text class="terminal-3410553639-r1" x="976" y="288.4" textLength="12.2" clip-path="url(#terminal-3410553639-line-11)">
</text><text class="terminal-3410553639-r1" x="976" y="312.8" textLength="12.2" clip-path="url(#terminal-3410553639-line-12)">
</text><text class="terminal-3410553639-r1" x="976" y="337.2" textLength="12.2" clip-path="url(#terminal-3410553639-line-13)">
</text><text class="terminal-3410553639-r2" x="0" y="361.6" textLength="549" clip-path="url(#terminal-3410553639-line-14)">Comments&#160;(used&#160;as&#160;answers&#160;to&#160;open&#160;questions):</text><text class="terminal-3410553639-r1" x="976" y="361.6" textLength="12.2" clip-path="url(#terminal-3410553639-line-14)">
</text><text class="terminal-3410553639-r7" x="0" y="386" textLength="12.2" clip-path="url(#terminal-3410553639-line-15)">╭</text><text class="terminal-3410553639-r7" x="12.2" y="386" textLength="927.2" clip-path="url(#terminal-3410553639-line-15)">────────────────────────────────────────────────────────────────────────────</text><text class="terminal-3410553639-r7" x="939.4" y="386" textLength="12.2" clip-path="url(#terminal-3410553639-line-15)">╮</text><text class="terminal-3410553639-r1" x="976" y="386" textLength="12.2" clip-path="url(#terminal-3410553639-line-15)">
</text><text class="terminal-3410553639-r7" x="0" y="410.4" textLength="12.2" clip-path="url(#terminal-3410553639-line-16)">│</text><text class="terminal-3410553639-r7" x="939.4" y="410.4" textLength="12.2" clip-path="url(#terminal-3410553639-line-16)">│</text><text class="terminal-3410553639-r1" x="976" y="410.4" textLength="12.2" clip-path="url(#terminal-3410553639-line-16)">
</text><text class="terminal-3410553639-r7" x="0" y="434.8" textLength="12.2" clip-path="url(#terminal-3410553639-line-17)">│</text><text class="terminal-3410553639-r7" x="939.4" y="434.8" textLength="12.2" clip-path="url(#terminal-3410553639-line-17)">│</text><text class="terminal-3410553639-r1" x="976" y="434.8" textLength="12.2" clip-path="url(#terminal-3410553639-line-17)">
</text><text class="terminal-3410553639-r7" x="0" y="459.2" textLength="12.2" clip-path="url(#terminal-3410553639-line-18)">│</text><text class="terminal-3410553639-r7" x="939.4" y="459.2" textLength="12.2" clip-path="url(#terminal-3410553639-line-18)">│</text><text class="terminal-3410553639-r1" x="976" y="459.2" textLength="12.2" clip-path="url(#terminal-3410553639-line-18)">
</text><text class="terminal-3410553639-r7" x="0" y="483.6" textLength="12.2" clip-path="url(#terminal-3410553639-line-19)">│</text><text class="terminal-3410553639-r7" x="939.4" y="483.6" textLength="12.2" clip-path="url(#terminal-3410553639-line-19)">│</text><text class="terminal-3410553639-r1" x="976" y="483.6" textLength="12.2" clip-path="url(#terminal-3410553639-line-19)">
</text><text class="terminal-3410553639-r7" x="0" y="508" textLength="12.2" clip-path="url(#terminal-3410553639-line-20)">│</text><text class="terminal-3410553639-r7" x="939.4" y="508" textLength="12.2" clip-path="url(#terminal-3410553639-line-20)">│</text><text class="terminal-3410553639-r1" x="976" y="508" textLength="12.2" clip-path="url(#terminal-3410553639-line-20)">
</text><text class="terminal-3410553639-r7" x="0" y="532.4" textLength="12.2" clip-path="url(#terminal-3410553639-line-21)">│</text><text class="terminal-3410553639-r7" x="939.4" y="532.4" textLength="12.2" clip-path="url(#terminal-3410553639-line-21)">│</text><text class="terminal-3410553639-r1" x="976" y="532.4" textLength="12.2" clip-path="url(#terminal-3410553639-line-21)">
</text><text class="terminal-3410553639-r7" x="0" y="556.8" textLength="12.2" clip-path="url(#terminal-3410553639-line-22)">╰</text><text class="terminal-3410553639-r7" x="12.2" y="556.8" textLength="927.2" clip-path="url(#terminal-3410553639-line-22)">────────────────────────────────────────────────────────────────────────────</text><text class="terminal-3410553639-r7" x="939.4" y="556.8" textLength="12.2" clip-path="url(#terminal-3410553639-line-22)">╯</text><text class="terminal-3410553639-r1" x="976" y="556.8" textLength="12.2" clip-path="url(#terminal-3410553639-line-22)">
</text><text class="terminal-3410553639-r8" x="0" y="581.2" textLength="61" clip-path="url(#terminal-3410553639-line-23)">&#160;tab&#160;</text><text class="terminal-3410553639-r2" x="61" y="581.2" textLength="109.8" clip-path="url(#terminal-3410553639-line-23)">Next&#160;doc&#160;</text><text class="terminal-3410553639-r8" x="170.8" y="581.2" textLength="36.6" clip-path="url(#terminal-3410553639-line-23)">&#160;a&#160;</text><text class="terminal-3410553639-r2" x="207.4" y="581.2" textLength="97.6" clip-path="url(#terminal-3410553639-line-23)">Approve&#160;</text><text class="terminal-3410553639-r8" x="305" y="581.2" textLength="36.6" clip-path="url(#terminal-3410553639-line-23)">&#160;r&#160;</text><text class="terminal-3410553639-r2" x="341.6" y="581.2" textLength="195.2" clip-path="url(#terminal-3410553639-line-23)">Request&#160;changes&#160;</text><text class="terminal-3410553639-r8" x="536.8" y="581.2" textLength="61" clip-path="url(#terminal-3410553639-line-23)">&#160;esc&#160;</text><text class="terminal-3410553639-r2" x="597.8" y="581.2" textLength="61" clip-path="url(#terminal-3410553639-line-23)">Back&#160;</text><text class="terminal-3410553639-r9" x="805.2" y="581.2" textLength="12.2" clip-path="url(#terminal-3410553639-line-23)">▏</text><text class="terminal-3410553639-r8" x="817.4" y="581.2" textLength="24.4" clip-path="url(#terminal-3410553639-line-23)">^p</text><text class="terminal-3410553639-r2" x="841.8" y="581.2" textLength="97.6" clip-path="url(#terminal-3410553639-line-23)">&#160;palette</text>
    </g>
    </g>
</svg>
