<svg class="rich-terminal" viewBox="0 0 994 635.5999999999999" xmlns="http://www.w3.org/2000/svg">
    <!-- Generated with Rich https://www.textualize.io -->
    <style>

    @font-face {
        font-family: "Fira Code";
        src: local("FiraCode-Regular"),
                url("https://cdnjs.cloudflare.com/ajax/libs/firacode/6.2.0/woff2/FiraCode-Regular.woff2") format("woff2"),
                url("https://cdnjs.cloudflare.com/ajax/libs/firacode/6.2.0/woff/FiraCode-Regular.woff") format("woff");
        font-style: normal;
        font-weight: 400;
    }
    @font-face {
        font-family: "Fira Code";
        src: local("FiraCode-Bold"),
                url("https://cdnjs.cloudflare.com/ajax/libs/firacode/6.2.0/woff2/FiraCode-Bold.woff2") format("woff2"),
                url("https://cdnjs.cloudflare.com/ajax/libs/firacode/6.2.0/woff/FiraCode-Bold.woff") format("woff");
        font-style: bold;
        font-weight: 700;
    }

    .terminal-2568683875-matrix {
        font-family: Fira Code, monospace;
        font-size: 20px;
        line-height: 24.4px;
        font-variant-east-asian: full-width;
    }

    .terminal-2568683875-title {
        font-size: 18px;
        font-weight: bold;
        font-family: arial;
    }

    .terminal-2568683875-r1 { fill: #c5c8c6 }
.terminal-2568683875-r2 { fill: #e0e0e0 }
.terminal-2568683875-r3 { fill: #a0a3a6 }
.terminal-2568683875-r4 { fill: #c5c6c7 }
.terminal-2568683875-r5 { fill: #e0e0e0;font-weight: bold }
.terminal-2568683875-r6 { fill: #fea62b }
.terminal-2568683875-r7 { fill: #fea62b;font-weight: bold }
.terminal-2568683875-r8 { fill: #1e1e1e }
.terminal-2568683875-r9 { fill: #a2a2a2 }
.terminal-2568683875-r10 { fill: #e2e2e2 }
.terminal-2568683875-r11 { fill: #ffa62b;font-weight: bold }
.terminal-2568683875-r12 { fill: #495259 }
    </style>

    <defs>
    <clipPath id="terminal-2568683875-clip-terminal">
      <rect x="0" y="0" width="975.0" height="584.5999999999999" />
    </clipPath>
    <clipPath id="terminal-2568683875-line-0">
    <rect x="0" y="1.5" width="976" height="24.65"/>
            </clipPath>
<clipPath id="terminal-2568683875-line-1">
    <rect x="0" y="25.9" width="976" height="24.65"/>
            </clipPath>
<clipPath id="terminal-2568683875-line-2">
    <rect x="0" y="50.3" width="976" height="24.65"/>
            </clipPath>
<clipPath id="terminal-2568683875-line-3">
    <rect x="0" y="74.7" width="976" height="24.65"/>
            </clipPath>
<clipPath id="terminal-2568683875-line-4">
    <rect x="0" y="99.1" width="976" height="24.65"/>
            </clipPath>
<clipPath id="terminal-2568683875-line-5">
    <rect x="0" y="123.5" width="976" height="24.65"/>
            </clipPath>
<clipPath id="terminal-2568683875-line-6">
    <rect x="0" y="147.9" width="976" height="24.65"/>
            </clipPath>
<clipPath id="terminal-2568683875-line-7">
    <rect x="0" y="172.3" width="976" height="24.65"/>
            </clipPath>
<clipPath id="terminal-2568683875-line-8">
    <rect x="0" y="196.7" width="976" height="24.65"/>
            </clipPath>
<clipPath id="terminal-2568683875-line-9">
    <rect x="0" y="221.1" width="976" height="24.65"/>
            </clipPath>
<clipPath id="terminal-2568683875-line-10">
    <rect x="0" y="245.5" width="976" height="24.65"/>
            </clipPath>
<clipPath id="terminal-2568683875-line-11">
    <rect x="0" y="269.9" width="976" height="24.65"/>
            </clipPath>
<clipPath id="terminal-2568683875-line-12">
    <rect x="0" y="294.3" width="976" height="24.65"/>
            </clipPath>
<clipPath id="terminal-2568683875-line-13">
    <rect x="0" y="318.7" width="976" height="24.65"/>
            </clipPath>
<clipPath id="terminal-2568683875-line-14">
    <rect x="0" y="343.1" width="976" height="24.65"/>
            </clipPath>
<clipPath id="terminal-2568683875-line-15">
    <rect x="0" y="367.5" width="976" height="24.65"/>
            </clipPath>
<clipPath id="terminal-2568683875-line-16">
    <rect x="0" y="391.9" width="976" height="24.65"/>
            </clipPath>
<clipPath id="terminal-2568683875-line-17">
    <rect x="0" y="416.3" width="976" height="24.65"/>
            </clipPath>
<clipPath id="terminal-2568683875-line-18">
    <rect x="0" y="440.7" width="976" height="24.65"/>
            </clipPath>
<clipPath id="terminal-2568683875-line-19">
    <rect x="0" y="465.1" width="976" height="24.65"/>
            </clipPath>
<clipPath id="terminal-2568683875-line-20">
    <rect x="0" y="489.5" width="976" height="24.65"/>
            </clipPath>
<clipPath id="terminal-2568683875-line-21">
    <rect x="0" y="513.9" width="976" height="24.65"/>
            </clipPath>
<clipPath id="terminal-2568683875-line-22">
    <rect x="0" y="538.3" width="976" height="24.65"/>
            </clipPath>
    </defs>

    <rect fill="#292929" stroke="rgba(255,255,255,0.35)" stroke-width="1" x="1" y="1" width="992" height="633.6" rx="8"/><text class="terminal-2568683875-title" fill="#c5c8c6" text-anchor="middle" x="496" y="27">Foreman</text>
            <g transform="translate(26,22)">
            <circle cx="0" cy="0" r="7" fill="#ff5f57"/>
            <circle cx="22" cy="0" r="7" fill="#febc2e"/>
            <circle cx="44" cy="0" r="7" fill="#28c840"/>
            </g>
        
    <g transform="translate(9, 41)" clip-path="url(#terminal-2568683875-clip-terminal)">
    <rect fill="#242f38" x="0" y="1.5" width="12.2" height="24.65" shape-rendering="crispEdges"/><rect fill="#242f38" x="12.2" y="1.5" width="12.2" height="24.65" shape-rendering="crispEdges"/><rect fill="#242f38" x="24.4" y="1.5" width="61" height="24.65" shape-rendering="crispEdges"/><rect fill="#242f38" x="85.4" y="1.5" width="12.2" height="24.65" shape-rendering="crispEdges"/><rect fill="#242f38" x="97.6" y="1.5" width="134.2" height="24.65" shape-rendering="crispEdges"/><rect fill="#242f38" x="231.8" y="1.5" width="85.4" height="24.65" shape-rendering="crispEdges"/><rect fill="#242f38" x="317.2" y="1.5" width="36.6" height="24.65" shape-rendering="crispEdges"/><rect fill="#242f38" x="353.8" y="1.5" width="353.8" height="24.65" shape-rendering="crispEdges"/><rect fill="#242f38" x="707.6" y="1.5" width="146.4" height="24.65" shape-rendering="crispEdges"/><rect fill="#2c363f" x="854" y="1.5" width="12.2" height="24.65" shape-rendering="crispEdges"/><rect fill="#2c363f" x="866.2" y="1.5" width="97.6" height="24.65" shape-rendering="crispEdges"/><rect fill="#2c363f" x="963.8" y="1.5" width="12.2" height="24.65" shape-rendering="crispEdges"/><rect fill="#1e1e1e" x="0" y="25.9" width="122" height="24.65" shape-rendering="crispEdges"/><rect fill="#1e1e1e" x="122" y="25.9" width="12.2" height="24.65" shape-rendering="crispEdges"/><rect fill="#1e1e1e" x="134.2" y="25.9" width="36.6" height="24.65" shape-rendering="crispEdges"/><rect fill="#1e1e1e" x="170.8" y="25.9" width="231.8" height="24.65" shape-rendering="crispEdges"/><rect fill="#1e1e1e" x="402.6" y="25.9" width="12.2" height="24.65" shape-rendering="crispEdges"/><rect fill="#1e1e1e" x="414.8" y="25.9" width="561.2" height="24.65" shape-rendering="crispEdges"/><rect fill="#272727" x="0" y="50.3" width="231.8" height="24.65" shape-rendering="crispEdges"/><rect fill="#272727" x="231.8" y="50.3" width="170.8" height="24.65" shape-rendering="crispEdges"/><rect fill="#1e1e1e" x="402.6" y="50.3" width="12.2" height="24.65" shape-rendering="crispEdges"/><rect fill="#1e1e1e" x="414.8" y="50.3" width="12.2" height="24.65" shape-rendering="crispEdges"/><rect fill="#1e1e1e" x="427" y="50.3" width="231.8" height="24.65" shape-rendering="crispEdges"/><rect fill="#1e1e1e" x="658.8" y="50.3" width="122" height="24.65" shape-rendering="crispEdges"/><rect fill="#1e1e1e" x="780.8" y="50.3" width="97.6" height="24.65" shape-rendering="crispEdges"/><rect fill="#1e1e1e" x="878.4" y="50.3" width="85.4" height="24.65" shape-rendering="crispEdges"/><rect fill="#1e1e1e" x="963.8" y="50.3" width="12.2" height="24.65" shape-rendering="crispEdges"/><rect fill="#272727" x="0" y="74.7" width="366" height="24.65" shape-rendering="crispEdges"/><rect fill="#272727" x="366" y="74.7" width="36.6" height="24.65" shape-rendering="crispEdges"/><rect fill="#1e1e1e" x="402.6" y="74.7" width="12.2" height="24.65" shape-rendering="crispEdges"/><rect fill="#1e1e1e" x="414.8" y="74.7" width="12.2" height="24.65" shape-rendering="crispEdges"/><rect fill="#1e1e1e" x="427" y="74.7" width="402.6" height="24.65" shape-rendering="crispEdges"/><rect fill="#1e1e1e" x="829.6" y="74.7" width="134.2" height="24.65" shape-rendering="crispEdges"/><rect fill="#1e1e1e" x="963.8" y="74.7" width="12.2" height="24.65" shape-rendering="crispEdges"/><rect fill="#272727" x="0" y="99.1" width="402.6" height="24.65" shape-rendering="crispEdges"/><rect fill="#1e1e1e" x="402.6" y="99.1" width="12.2" height="24.65" shape-rendering="crispEdges"/><rect fill="#1e1e1e" x="414.8" y="99.1" width="12.2" height="24.65" shape-rendering="crispEdges"/><rect fill="#1e1e1e" x="427" y="99.1" width="73.2" height="24.65" shape-rendering="crispEdges"/><rect fill="#1e1e1e" x="500.2" y="99.1" width="12.2" height="24.65" shape-rendering="crispEdges"/><rect fill="#1e1e1e" x="512.4" y="99.1" width="317.2" height="24.65" shape-rendering="crispEdges"/><rect fill="#1e1e1e" x="829.6" y="99.1" width="12.2" height="24.65" shape-rendering="crispEdges"/><rect fill="#1e1e1e" x="841.8" y="99.1" width="122" height="24.65" shape-rendering="crispEdges"/><rect fill="#1e1e1e" x="963.8" y="99.1" width="12.2" height="24.65" shape-rendering="crispEdges"/><rect fill="#272727" x="0" y="123.5" width="402.6" height="24.65" shape-rendering="crispEdges"/><rect fill="#1e1e1e" x="402.6" y="123.5" width="12.2" height="24.65" shape-rendering="crispEdges"/><rect fill="#1e1e1e" x="414.8" y="123.5" width="12.2" height="24.65" shape-rendering="crispEdges"/><rect fill="#1e1e1e" x="427" y="123.5" width="12.2" height="24.65" shape-rendering="crispEdges"/><rect fill="#1e1e1e" x="439.2" y="123.5" width="122" height="24.65" shape-rendering="crispEdges"/><rect fill="#1e1e1e" x="561.2" y="123.5" width="402.6" height="24.65" shape-rendering="crispEdges"/><rect fill="#1e1e1e" x="963.8" y="123.5" width="12.2" height="24.65" shape-rendering="crispEdges"/><rect fill="#272727" x="0" y="147.9" width="402.6" height="24.65" shape-rendering="crispEdges"/><rect fill="#1e1e1e" x="402.6" y="147.9" width="12.2" height="24.65" shape-rendering="crispEdges"/><rect fill="#1e1e1e" x="414.8" y="147.9" width="561.2" height="24.65" shape-rendering="crispEdges"/><rect fill="#272727" x="0" y="172.3" width="402.6" height="24.65" shape-rendering="crispEdges"/><rect fill="#1e1e1e" x="402.6" y="172.3" width="12.2" height="24.65" shape-rendering="crispEdges"/><rect fill="#1e1e1e" x="414.8" y="172.3" width="134.2" height="24.65" shape-rendering="crispEdges"/><rect fill="#1e1e1e" x="549" y="172.3" width="427" height="24.65" shape-rendering="crispEdges"/><rect fill="#272727" x="0" y="196.7" width="402.6" height="24.65" shape-rendering="crispEdges"/><rect fill="#1e1e1e" x="402.6" y="196.7" width="12.2" height="24.65" shape-rendering="crispEdges"/><rect fill="#1e1e1e" x="414.8" y="196.7" width="427" height="24.65" shape-rendering="crispEdges"/><rect fill="#1e1e1e" x="841.8" y="196.7" width="134.2" height="24.65" shape-rendering="crispEdges"/><rect fill="#272727" x="0" y="221.1" width="402.6" height="24.65" shape-rendering="crispEdges"/><rect fill="#1e1e1e" x="402.6" y="221.1" width="12.2" height="24.65" shape-rendering="crispEdges"/><rect fill="#1e1e1e" x="414.8" y="221.1" width="561.2" height="24.65" shape-rendering="crispEdges"/><rect fill="#272727" x="0" y="245.5" width="402.6" height="24.65" shape-rendering="crispEdges"/><rect fill="#1e1e1e" x="402.6" y="245.5" width="12.2" height="24.65" shape-rendering="crispEdges"/><rect fill="#1e1e1e" x="414.8" y="245.5" width="561.2" height="24.65" shape-rendering="crispEdges"/><rect fill="#272727" x="0" y="269.9" width="402.6" height="24.65" shape-rendering="crispEdges"/><rect fill="#1e1e1e" x="402.6" y="269.9" width="12.2" height="24.65" shape-rendering="crispEdges"/><rect fill="#1e1e1e" x="414.8" y="269.9" width="561.2" height="24.65" shape-rendering="crispEdges"/><rect fill="#272727" x="0" y="294.3" width="402.6" height="24.65" shape-rendering="crispEdges"/><rect fill="#1e1e1e" x="402.6" y="294.3" width="12.2" height="24.65" shape-rendering="crispEdges"/><rect fill="#1e1e1e" x="414.8" y="294.3" width="561.2" height="24.65" shape-rendering="crispEdges"/><rect fill="#272727" x="0" y="318.7" width="402.6" height="24.65" shape-rendering="crispEdges"/><rect fill="#1e1e1e" x="402.6" y="318.7" width="12.2" height="24.65" shape-rendering="crispEdges"/><rect fill="#1e1e1e" x="414.8" y="318.7" width="561.2" height="24.65" shape-rendering="crispEdges"/><rect fill="#272727" x="0" y="343.1" width="402.6" height="24.65" shape-rendering="crispEdges"/><rect fill="#1e1e1e" x="402.6" y="343.1" width="12.2" height="24.65" shape-rendering="crispEdges"/><rect fill="#1e1e1e" x="414.8" y="343.1" width="561.2" height="24.65" shape-rendering="crispEdges"/><rect fill="#272727" x="0" y="367.5" width="402.6" height="24.65" shape-rendering="crispEdges"/><rect fill="#1e1e1e" x="402.6" y="367.5" width="12.2" height="24.65" shape-rendering="crispEdges"/><rect fill="#1e1e1e" x="414.8" y="367.5" width="12.2" height="24.65" shape-rendering="crispEdges"/><rect fill="#1e1e1e" x="427" y="367.5" width="524.6" height="24.65" shape-rendering="crispEdges"/><rect fill="#003054" x="951.6" y="367.5" width="24.4" height="24.65" shape-rendering="crispEdges"/><rect fill="#1e1e1e" x="0" y="391.9" width="183" height="24.65" shape-rendering="crispEdges"/><rect fill="#1e1e1e" x="183" y="391.9" width="219.6" height="24.65" shape-rendering="crispEdges"/><rect fill="#1e1e1e" x="402.6" y="391.9" width="12.2" height="24.65" shape-rendering="crispEdges"/><rect fill="#1e1e1e" x="414.8" y="391.9" width="536.8" height="24.65" shape-rendering="crispEdges"/><rect fill="#000000" x="951.6" y="391.9" width="24.4" height="24.65" shape-rendering="crispEdges"/><rect fill="#1e1e1e" x="0" y="416.3" width="244" height="24.65" shape-rendering="crispEdges"/><rect fill="#1e1e1e" x="244" y="416.3" width="158.6" height="24.65" shape-rendering="crispEdges"/><rect fill="#1e1e1e" x="402.6" y="416.3" width="12.2" height="24.65" shape-rendering="crispEdges"/><rect fill="#1e1e1e" x="414.8" y="416.3" width="390.4" height="24.65" shape-rendering="crispEdges"/><rect fill="#1e1e1e" x="805.2" y="416.3" width="146.4" height="24.65" shape-rendering="crispEdges"/><rect fill="#000000" x="951.6" y="416.3" width="24.4" height="24.65" shape-rendering="crispEdges"/><rect fill="#1e1e1e" x="0" y="440.7" width="305" height="24.65" shape-rendering="crispEdges"/><rect fill="#1e1e1e" x="305" y="440.7" width="97.6" height="24.65" shape-rendering="crispEdges"/><rect fill="#1e1e1e" x="402.6" y="440.7" width="12.2" height="24.65" shape-rendering="crispEdges"/><rect fill="#1e1e1e" x="414.8" y="440.7" width="12.2" height="24.65" shape-rendering="crispEdges"/><rect fill="#1e1e1e" x="427" y="440.7" width="524.6" height="24.65" shape-rendering="crispEdges"/><rect fill="#000000" x="951.6" y="440.7" width="24.4" height="24.65" shape-rendering="crispEdges"/><rect fill="#1e1e1e" x="0" y="465.1" width="231.8" height="24.65" shape-rendering="crispEdges"/><rect fill="#1e1e1e" x="231.8" y="465.1" width="170.8" height="24.65" shape-rendering="crispEdges"/><rect fill="#1e1e1e" x="402.6" y="465.1" width="12.2" height="24.65" shape-rendering="crispEdges"/><rect fill="#1e1e1e" x="414.8" y="465.1" width="536.8" height="24.65" shape-rendering="crispEdges"/><rect fill="#000000" x="951.6" y="465.1" width="24.4" height="24.65" shape-rendering="crispEdges"/><rect fill="#1e1e1e" x="0" y="489.5" width="219.6" height="24.65" shape-rendering="crispEdges"/><rect fill="#1e1e1e" x="219.6" y="489.5" width="183" height="24.65" shape-rendering="crispEdges"/><rect fill="#1e1e1e" x="402.6" y="489.5" width="12.2" height="24.65" shape-rendering="crispEdges"/><rect fill="#1e1e1e" x="414.8" y="489.5" width="231.8" height="24.65" shape-rendering="crispEdges"/><rect fill="#1e1e1e" x="646.6" y="489.5" width="305" height="24.65" shape-rendering="crispEdges"/><rect fill="#000000" x="951.6" y="489.5" width="24.4" height="24.65" shape-rendering="crispEdges"/><rect fill="#1e1e1e" x="0" y="513.9" width="292.8" height="24.65" shape-rendering="crispEdges"/><rect fill="#1e1e1e" x="292.8" y="513.9" width="109.8" height="24.65" shape-rendering="crispEdges"/><rect fill="#1e1e1e" x="402.6" y="513.9" width="12.2" height="24.65" shape-rendering="crispEdges"/><rect fill="#1e1e1e" x="414.8" y="513.9" width="231.8" height="24.65" shape-rendering="crispEdges"/><rect fill="#1e1e1e" x="646.6" y="513.9" width="305" height="24.65" shape-rendering="crispEdges"/><rect fill="#000000" x="951.6" y="513.9" width="24.4" height="24.65" shape-rendering="crispEdges"/><rect fill="#262626" x="0" y="538.3" width="12.2" height="24.65" shape-rendering="crispEdges"/><rect fill="#262626" x="12.2" y="538.3" width="73.2" height="24.65" shape-rendering="crispEdges"/><rect fill="#262626" x="85.4" y="538.3" width="280.6" height="24.65" shape-rendering="crispEdges"/><rect fill="#262626" x="366" y="538.3" width="597.8" height="24.65" shape-rendering="crispEdges"/><rect fill="#262626" x="963.8" y="538.3" width="12.2" height="24.65" shape-rendering="crispEdges"/><rect fill="#242f38" x="0" y="562.7" width="36.6" height="24.65" shape-rendering="crispEdges"/><rect fill="#242f38" x="36.6" y="562.7" width="48.8" height="24.65" shape-rendering="crispEdges"/><rect fill="#242f38" x="85.4" y="562.7" width="36.6" height="24.65" shape-rendering="crispEdges"/><rect fill="#242f38" x="122" y="562.7" width="61" height="24.65" shape-rendering="crispEdges"/><rect fill="#242f38" x="183" y="562.7" width="36.6" height="24.65" shape-rendering="crispEdges"/><rect fill="#242f38" x="219.6" y="562.7" width="73.2" height="24.65" shape-rendering="crispEdges"/><rect fill="#242f38" x="292.8" y="562.7" width="36.6" height="24.65" shape-rendering="crispEdges"/><rect fill="#242f38" x="329.4" y="562.7" width="73.2" height="24.65" shape-rendering="crispEdges"/><rect fill="#242f38" x="402.6" y="562.7" width="36.6" height="24.65" shape-rendering="crispEdges"/><rect fill="#242f38" x="439.2" y="562.7" width="170.8" height="24.65" shape-rendering="crispEdges"/><rect fill="#242f38" x="610" y="562.7" width="36.6" height="24.65" shape-rendering="crispEdges"/><rect fill="#242f38" x="646.6" y="562.7" width="73.2" height="24.65" shape-rendering="crispEdges"/><rect fill="#242f38" x="719.8" y="562.7" width="36.6" height="24.65" shape-rendering="crispEdges"/><rect fill="#242f38" x="756.4" y="562.7" width="73.2" height="24.65" shape-rendering="crispEdges"/><rect fill="#242f38" x="829.6" y="562.7" width="12.2" height="24.65" shape-rendering="crispEdges"/><rect fill="#242f38" x="841.8" y="562.7" width="24.4" height="24.65" shape-rendering="crispEdges"/><rect fill="#242f38" x="866.2" y="562.7" width="97.6" height="24.65" shape-rendering="crispEdges"/><rect fill="#242f38" x="963.8" y="562.7" width="12.2" height="24.65" shape-rendering="crispEdges"/>
    <g class="terminal-2568683875-matrix">
    <text class="terminal-2568683875-r2" x="12.2" y="20" textLength="12.2" clip-path="url(#terminal-2568683875-line-0)">⭘</text><text class="terminal-2568683875-r2" x="231.8" y="20" textLength="85.4" clip-path="url(#terminal-2568683875-line-0)">Foreman</text><text class="terminal-2568683875-r3" x="317.2" y="20" textLength="36.6" clip-path="url(#terminal-2568683875-line-0)">&#160;—&#160;</text><text class="terminal-2568683875-r3" x="353.8" y="20" textLength="353.8" clip-path="url(#terminal-2568683875-line-0)">agentic&#160;delivery&#160;orchestrator</text><text class="terminal-2568683875-r4" x="866.2" y="20" textLength="97.6" clip-path="url(#terminal-2568683875-line-0)">02:13:05</text><text class="terminal-2568683875-r1" x="976" y="20" textLength="12.2" clip-path="url(#terminal-2568683875-line-0)">
</text><text class="terminal-2568683875-r2" x="0" y="44.4" textLength="122" clip-path="url(#terminal-2568683875-line-1)">Features&#160;(</text><text class="terminal-2568683875-r5" x="122" y="44.4" textLength="12.2" clip-path="url(#terminal-2568683875-line-1)">n</text><text class="terminal-2568683875-r2" x="134.2" y="44.4" textLength="36.6" clip-path="url(#terminal-2568683875-line-1)">ew)</text><text class="terminal-2568683875-r6" x="402.6" y="44.4" textLength="12.2" clip-path="url(#terminal-2568683875-line-1)">│</text><text class="terminal-2568683875-r1" x="976" y="44.4" textLength="12.2" clip-path="url(#terminal-2568683875-line-1)">
</text><text class="terminal-2568683875-r2" x="0" y="68.8" textLength="231.8" clip-path="url(#terminal-2568683875-line-2)">daily-plan-endpoint</text><text class="terminal-2568683875-r6" x="402.6" y="68.8" textLength="12.2" clip-path="url(#terminal-2568683875-line-2)">│</text><text class="terminal-2568683875-r7" x="427" y="68.8" textLength="231.8" clip-path="url(#terminal-2568683875-line-2)">daily-plan-endpoint</text><text class="terminal-2568683875-r6" x="658.8" y="68.8" textLength="122" clip-path="url(#terminal-2568683875-line-2)">&#160;—&#160;phase:&#160;</text><text class="terminal-2568683875-r7" x="780.8" y="68.8" textLength="97.6" clip-path="url(#terminal-2568683875-line-2)">building</text><text class="terminal-2568683875-r1" x="976" y="68.8" textLength="12.2" clip-path="url(#terminal-2568683875-line-2)">
</text><text class="terminal-2568683875-r2" x="0" y="93.2" textLength="366" clip-path="url(#terminal-2568683875-line-3)">return-created-at-in-task-list</text><text class="terminal-2568683875-r6" x="402.6" y="93.2" textLength="12.2" clip-path="url(#terminal-2568683875-line-3)">│</text><text class="terminal-2568683875-r6" x="427" y="93.2" textLength="402.6" clip-path="url(#terminal-2568683875-line-3)">cost:&#160;$1.8343&#160;&#160;&#160;active&#160;workers:&#160;1</text><text class="terminal-2568683875-r1" x="976" y="93.2" textLength="12.2" clip-path="url(#terminal-2568683875-line-3)">
</text><text class="terminal-2568683875-r6" x="402.6" y="117.6" textLength="12.2" clip-path="url(#terminal-2568683875-line-4)">│</text><text class="terminal-2568683875-r6" x="427" y="117.6" textLength="73.2" clip-path="url(#terminal-2568683875-line-4)">Press&#160;</text><text class="terminal-2568683875-r7" x="500.2" y="117.6" textLength="12.2" clip-path="url(#terminal-2568683875-line-4)">b</text><text class="terminal-2568683875-r6" x="512.4" y="117.6" textLength="317.2" clip-path="url(#terminal-2568683875-line-4)">&#160;to&#160;(re)start&#160;the&#160;build&#160;·&#160;</text><text class="terminal-2568683875-r7" x="829.6" y="117.6" textLength="12.2" clip-path="url(#terminal-2568683875-line-4)">w</text><text class="terminal-2568683875-r6" x="841.8" y="117.6" textLength="122" clip-path="url(#terminal-2568683875-line-4)">&#160;workers&#160;·</text><text class="terminal-2568683875-r1" x="976" y="117.6" textLength="12.2" clip-path="url(#terminal-2568683875-line-4)">
</text><text class="terminal-2568683875-r6" x="402.6" y="142" textLength="12.2" clip-path="url(#terminal-2568683875-line-5)">│</text><text class="terminal-2568683875-r7" x="427" y="142" textLength="12.2" clip-path="url(#terminal-2568683875-line-5)">x</text><text class="terminal-2568683875-r6" x="439.2" y="142" textLength="122" clip-path="url(#terminal-2568683875-line-5)">&#160;attention</text><text class="terminal-2568683875-r1" x="976" y="142" textLength="12.2" clip-path="url(#terminal-2568683875-line-5)">
</text><text class="terminal-2568683875-r6" x="402.6" y="166.4" textLength="12.2" clip-path="url(#terminal-2568683875-line-6)">│</text><text class="terminal-2568683875-r1" x="976" y="166.4" textLength="12.2" clip-path="url(#terminal-2568683875-line-6)">
</text><text class="terminal-2568683875-r6" x="402.6" y="190.8" textLength="12.2" clip-path="url(#terminal-2568683875-line-7)">│</text><text class="terminal-2568683875-r2" x="414.8" y="190.8" textLength="134.2" clip-path="url(#terminal-2568683875-line-7)">Issue&#160;board</text><text class="terminal-2568683875-r1" x="976" y="190.8" textLength="12.2" clip-path="url(#terminal-2568683875-line-7)">
</text><text class="terminal-2568683875-r6" x="402.6" y="215.2" textLength="12.2" clip-path="url(#terminal-2568683875-line-8)">│</text><text class="terminal-2568683875-r2" x="414.8" y="215.2" textLength="427" clip-path="url(#terminal-2568683875-line-8)">&#160;&#160;queued:&#160;ISS-001,&#160;ISS-002,&#160;ISS-003</text><text class="terminal-2568683875-r1" x="976" y="215.2" textLength="12.2" clip-path="url(#terminal-2568683875-line-8)">
</text><text class="terminal-2568683875-r6" x="402.6" y="239.6" textLength="12.2" clip-path="url(#terminal-2568683875-line-9)">│</text><text class="terminal-2568683875-r1" x="976" y="239.6" textLength="12.2" clip-path="url(#terminal-2568683875-line-9)">
</text><text class="terminal-2568683875-r6" x="402.6" y="264" textLength="12.2" clip-path="url(#terminal-2568683875-line-10)">│</text><text class="terminal-2568683875-r1" x="976" y="264" textLength="12.2" clip-path="url(#terminal-2568683875-line-10)">
</text><text class="terminal-2568683875-r6" x="402.6" y="288.4" textLength="12.2" clip-path="url(#terminal-2568683875-line-11)">│</text><text class="terminal-2568683875-r1" x="976" y="288.4" textLength="12.2" clip-path="url(#terminal-2568683875-line-11)">
</text><text class="terminal-2568683875-r6" x="402.6" y="312.8" textLength="12.2" clip-path="url(#terminal-2568683875-line-12)">│</text><text class="terminal-2568683875-r1" x="976" y="312.8" textLength="12.2" clip-path="url(#terminal-2568683875-line-12)">
</text><text class="terminal-2568683875-r6" x="402.6" y="337.2" textLength="12.2" clip-path="url(#terminal-2568683875-line-13)">│</text><text class="terminal-2568683875-r1" x="976" y="337.2" textLength="12.2" clip-path="url(#terminal-2568683875-line-13)">
</text><text class="terminal-2568683875-r6" x="402.6" y="361.6" textLength="12.2" clip-path="url(#terminal-2568683875-line-14)">│</text><text class="terminal-2568683875-r6" x="414.8" y="361.6" textLength="561.2" clip-path="url(#terminal-2568683875-line-14)">──────────────────────────────────────────────</text><text class="terminal-2568683875-r1" x="976" y="361.6" textLength="12.2" clip-path="url(#terminal-2568683875-line-14)">
</text><text class="terminal-2568683875-r6" x="402.6" y="386" textLength="12.2" clip-path="url(#terminal-2568683875-line-15)">│</text><text class="terminal-2568683875-r2" x="414.8" y="386" textLength="12.2" clip-path="url(#terminal-2568683875-line-15)">⚙</text><text class="terminal-2568683875-r1" x="976" y="386" textLength="12.2" clip-path="url(#terminal-2568683875-line-15)">
</text><text class="terminal-2568683875-r5" x="0" y="410.4" textLength="183" clip-path="url(#terminal-2568683875-line-16)">Vendored&#160;skills</text><text class="terminal-2568683875-r6" x="402.6" y="410.4" textLength="12.2" clip-path="url(#terminal-2568683875-line-16)">│</text><text class="terminal-2568683875-r2" x="414.8" y="410.4" textLength="536.8" clip-path="url(#terminal-2568683875-line-16)">Read(file_path=/home/arash/foreman-dogfood/d</text><text class="terminal-2568683875-r1" x="976" y="410.4" textLength="12.2" clip-path="url(#terminal-2568683875-line-16)">
</text><text class="terminal-2568683875-r2" x="0" y="434.8" textLength="244" clip-path="url(#terminal-2568683875-line-17)">&#160;✓&#160;foreman-debug&#160;v1&#160;</text><text class="terminal-2568683875-r6" x="402.6" y="434.8" textLength="12.2" clip-path="url(#terminal-2568683875-line-17)">│</text><text class="terminal-2568683875-r2" x="414.8" y="434.8" textLength="390.4" clip-path="url(#terminal-2568683875-line-17)">ayplan/.foreman/features/daily-)</text><text class="terminal-2568683875-r1" x="976" y="434.8" textLength="12.2" clip-path="url(#terminal-2568683875-line-17)">
</text><text class="terminal-2568683875-r2" x="0" y="459.2" textLength="305" clip-path="url(#terminal-2568683875-line-18)">&#160;✓&#160;foreman-grill-docs&#160;v2&#160;</text><text class="terminal-2568683875-r6" x="402.6" y="459.2" textLength="12.2" clip-path="url(#terminal-2568683875-line-18)">│</text><text class="terminal-2568683875-r2" x="414.8" y="459.2" textLength="12.2" clip-path="url(#terminal-2568683875-line-18)">⚙</text><text class="terminal-2568683875-r1" x="976" y="459.2" textLength="12.2" clip-path="url(#terminal-2568683875-line-18)">
</text><text class="terminal-2568683875-r2" x="0" y="483.6" textLength="231.8" clip-path="url(#terminal-2568683875-line-19)">&#160;✓&#160;foreman-plan&#160;v1&#160;</text><text class="terminal-2568683875-r6" x="402.6" y="483.6" textLength="12.2" clip-path="url(#terminal-2568683875-line-19)">│</text><text class="terminal-2568683875-r2" x="414.8" y="483.6" textLength="536.8" clip-path="url(#terminal-2568683875-line-19)">Read(file_path=/home/arash/foreman-dogfood/d</text><text class="terminal-2568683875-r1" x="976" y="483.6" textLength="12.2" clip-path="url(#terminal-2568683875-line-19)">
</text><text class="terminal-2568683875-r2" x="0" y="508" textLength="219.6" clip-path="url(#terminal-2568683875-line-20)">&#160;✓&#160;foreman-tdd&#160;v3&#160;</text><text class="terminal-2568683875-r6" x="402.6" y="508" textLength="12.2" clip-path="url(#terminal-2568683875-line-20)">│</text><text class="terminal-2568683875-r2" x="414.8" y="508" textLength="231.8" clip-path="url(#terminal-2568683875-line-20)">ayplan/src/main.py)</text><text class="terminal-2568683875-r1" x="976" y="508" textLength="12.2" clip-path="url(#terminal-2568683875-line-20)">
</text><text class="terminal-2568683875-r2" x="0" y="532.4" textLength="292.8" clip-path="url(#terminal-2568683875-line-21)">&#160;✓&#160;foreman-to-issues&#160;v2&#160;</text><text class="terminal-2568683875-r6" x="402.6" y="532.4" textLength="12.2" clip-path="url(#terminal-2568683875-line-21)">│</text><text class="terminal-2568683875-r2" x="414.8" y="532.4" textLength="231.8" clip-path="url(#terminal-2568683875-line-21)">⚙&#160;Bash(command=find</text><text class="terminal-2568683875-r1" x="976" y="532.4" textLength="12.2" clip-path="url(#terminal-2568683875-line-21)">
</text><text class="terminal-2568683875-r9" x="12.2" y="556.8" textLength="73.2" clip-path="url(#terminal-2568683875-line-22)">●&#160;idle</text><text class="terminal-2568683875-r10" x="85.4" y="556.8" textLength="280.6" clip-path="url(#terminal-2568683875-line-22)">&#160;&#160;■&#160;resume&#160;ISS-001&#160;done</text><text class="terminal-2568683875-r1" x="976" y="556.8" textLength="12.2" clip-path="url(#terminal-2568683875-line-22)">
</text><text class="terminal-2568683875-r11" x="0" y="581.2" textLength="36.6" clip-path="url(#terminal-2568683875-line-23)">&#160;n&#160;</text><text class="terminal-2568683875-r2" x="36.6" y="581.2" textLength="48.8" clip-path="url(#terminal-2568683875-line-23)">New&#160;</text><text class="terminal-2568683875-r11" x="85.4" y="581.2" textLength="36.6" clip-path="url(#terminal-2568683875-line-23)">&#160;p&#160;</text><text class="terminal-2568683875-r2" x="122" y="581.2" textLength="61" clip-path="url(#terminal-2568683875-line-23)">Plan&#160;</text><text class="terminal-2568683875-r11" x="183" y="581.2" textLength="36.6" clip-path="url(#terminal-2568683875-line-23)">&#160;g&#160;</text><text class="terminal-2568683875-r2" x="219.6" y="581.2" textLength="73.2" clip-path="url(#terminal-2568683875-line-23)">Grill&#160;</text><text class="terminal-2568683875-r11" x="292.8" y="581.2" textLength="36.6" clip-path="url(#terminal-2568683875-line-23)">&#160;s&#160;</text><text class="terminal-2568683875-r2" x="329.4" y="581.2" textLength="73.2" clip-path="url(#terminal-2568683875-line-23)">Slice&#160;</text><text class="terminal-2568683875-r11" x="402.6" y="581.2" textLength="36.6" clip-path="url(#terminal-2568683875-line-23)">&#160;c&#160;</text><text class="terminal-2568683875-r2" x="439.2" y="581.2" textLength="170.8" clip-path="url(#terminal-2568683875-line-23)">Confirm&#160;queue&#160;</text><text class="terminal-2568683875-r11" x="610" y="581.2" textLength="36.6" clip-path="url(#terminal-2568683875-line-23)">&#160;b&#160;</text><text class="terminal-2568683875-r2" x="646.6" y="581.2" textLength="73.2" clip-path="url(#terminal-2568683875-line-23)">Build&#160;</text><text class="terminal-2568683875-r11" x="719.8" y="581.2" textLength="36.6" clip-path="url(#terminal-2568683875-line-23)">&#160;v&#160;</text><text class="terminal-2568683875-r2" x="756.4" y="581.2" textLength="73.2" clip-path="url(#terminal-2568683875-line-23)">Review</text><text class="terminal-2568683875-r12" x="829.6" y="581.2" textLength="12.2" clip-path="url(#terminal-2568683875-line-23)">▏</text><text class="terminal-2568683875-r11" x="841.8" y="581.2" textLength="24.4" clip-path="url(#terminal-2568683875-line-23)">^p</text><text class="terminal-2568683875-r2" x="866.2" y="581.2" textLength="97.6" clip-path="url(#terminal-2568683875-line-23)">&#160;palette</text>
    </g>
    </g>
</svg>
